<svg width="103" height="102" viewBox="0 0 103 102" fill="none" xmlns="http://www.w3.org/2000/svg">
<path d="M102.507 53.7218C102.459 55.5559 102.124 57.9343 101.722 59.7166C101.598 60.2739 101.545 59.9707 101.452 60.3524C101.269 61.0948 101.169 61.8112 100.947 62.5376C100.873 62.7779 100.782 62.4355 100.707 62.6876C100.299 64.0663 99.9684 65.3865 99.4778 66.7608C97.0576 73.5104 93.3943 79.6637 88.4936 84.9596C86.8806 86.7125 84.6846 88.5928 82.8229 90.1841C82.6059 90.3707 82.8309 90.3777 82.7963 90.4214C82.2441 91.103 82.2804 90.692 81.8169 91.0037C79.9738 92.2379 77.9301 93.5887 76.117 94.7C75.3444 95.171 76.2785 94.9774 75.4014 95.2822C75.3407 95.3033 75.4653 95.055 75.2403 95.1608C74.7309 95.4034 73.8021 95.9218 73.4052 96.1041C72.6419 96.4561 72.518 96.5166 71.7977 96.8483C70.8094 97.2991 69.5927 97.7253 68.516 98.1671C68.2859 98.2619 68.6513 98.2969 68.2878 98.4612C67.9251 98.6274 66.9279 98.9604 66.5778 99.0328C66.2287 99.1074 66.3334 98.9401 66.2649 98.9321C65.7012 98.8626 64.6448 99.5276 64.4924 99.5761C61.7843 100.483 59.3263 100.763 56.6841 101.083C54.6863 101.324 52.5471 101.507 50.619 101.497C50.603 101.497 50.5871 101.497 50.5711 101.497C48.2616 101.478 46.3308 101.264 44.1107 101.001C43.8769 100.972 44.1267 101.195 43.8404 101.159C40.7971 100.777 37.8088 100.08 34.9483 99.0203C34.6615 98.9134 35.087 98.8779 34.8045 98.7616C33.0634 98.0695 30.4995 96.6545 29.1982 96.8256C28.06 96.2698 26.7041 95.5362 25.7914 94.8525C25.2046 94.4113 25.9065 94.6069 25.0972 94.2265C24.9152 94.1394 25.0605 94.4086 24.7933 94.2667C23.6665 93.6673 22.5258 92.8683 21.4468 92.2085C21.2271 92.0746 21.2027 92.2303 21.1284 92.2089C20.5049 92.0229 19.8892 91.1345 19.731 90.9794C18.5064 89.8023 17.523 89.0658 16.3639 88.0032C16.0962 87.7554 16.2848 88.1879 16.0223 87.9533C14.6636 86.7328 13.3554 85.3558 12.2483 83.9523C12.0029 83.6396 12.3643 83.8095 12.2537 83.6549C11.7695 82.9736 11.416 83.0263 10.963 82.36C10.8679 82.2196 11.0358 82.2074 11.0285 82.1738C10.9161 81.65 10.3952 81.5279 10.3132 81.433C9.28028 80.2432 8.99247 79.2162 8.13021 77.9825C8.02703 77.8338 8.10009 78.2727 7.81913 77.8475C5.94772 75.014 4.36754 71.7531 3.31448 68.5679C3.15064 68.0721 3.40545 68.3744 3.40896 68.3378C3.45956 67.7498 3.02689 67.5446 2.95783 67.3876C2.42419 66.1516 2.33939 64.8761 1.70795 64.1064C0.603862 59.6747 -0.118256 55.1526 0.0159507 50.6122C0.0491263 49.4891 0.133549 48.391 0.277598 47.2815C0.286477 47.2105 0.445265 47.349 0.46231 47.2076C0.683956 45.5094 0.403729 45.8261 0.210396 44.6511C0.162484 44.3533 0.658803 43.5386 0.698885 43.4689C0.841244 43.2073 1.04699 43.529 1.08014 43.4396C1.34909 42.7061 0.511506 42.6988 0.691228 41.6588C0.698329 41.6266 0.823592 41.7892 0.853861 41.705C0.948382 41.4439 0.938758 41.1664 1.04106 40.914C1.27856 40.338 1.71084 40.2073 1.68981 39.2505C1.68834 39.1292 1.18562 39.1983 1.43112 38.2913C1.52316 37.9305 1.95608 36.3233 2.12652 35.8921C2.29075 35.4582 2.34186 35.8066 2.35775 35.7768C2.92051 34.648 2.85952 35.1241 3.33348 34.6301C3.81028 34.1425 3.09355 34.0755 3.1036 33.8097C3.11251 33.5436 3.58382 32.7435 3.71928 32.5571C3.8531 32.3694 3.84202 32.6634 3.94375 32.4904C4.62243 31.3501 3.83348 31.8255 3.8935 31.3802C4.04409 30.3265 4.85036 29.7989 5.29626 28.9818C5.41805 28.7598 5.22167 28.8948 5.3101 28.6863C5.66595 27.8612 6.05312 27.458 6.40769 26.4937C6.46448 26.3366 6.59548 25.4587 7.06613 25.1136C7.13297 25.0653 7.13574 25.3152 7.35442 25.0021C7.67969 24.5346 8.24522 23.6788 8.5453 23.1454C8.76668 22.7507 8.30265 23.0651 8.67317 22.6272C8.83861 22.4336 8.68133 22.8916 8.98347 22.5235C9.2822 22.1554 9.97367 21.1689 10.2459 20.8C10.5151 20.4302 10.2363 20.5343 10.2495 20.4981C10.3319 20.2796 10.8092 19.5313 10.8591 19.4709C13.287 16.3557 16.0467 13.9585 18.9495 11.4817C19.1785 11.2878 18.916 11.2804 18.9498 11.2495C19.7113 10.5512 19.3579 11.4104 20.0135 11.0899C19.7197 10.8802 20.0899 10.6669 20.6473 10.2048C20.9162 9.98254 20.6843 9.98746 20.7016 9.95747C20.9991 9.48513 21.4493 9.48974 21.5554 9.48046C21.9486 9.44454 22.1216 9.04095 22.3894 9.0191C22.6554 8.99786 22.3233 9.45666 22.893 9.06998C22.9854 8.85914 22.3769 8.87533 22.7866 8.53924C24.3252 7.23852 27.7213 5.65347 29.189 5.02817C30.6459 4.3793 31.1197 4.1686 31.9963 3.86153C33.5897 3.32854 32.9324 3.32713 33.8791 2.86875C34.837 2.42167 34.5435 3.15049 34.7261 3.22197C34.9052 3.29605 35.0159 3.12156 35.2111 3.13174C35.4052 3.14248 35.0585 3.34507 35.4719 3.23961C35.8849 3.13094 36.9326 2.58628 37.0463 2.4194C37.2812 2.06298 36.6873 1.91357 37.8221 1.71846C37.8873 1.70785 37.7201 1.91216 37.9677 1.86402C39.9215 1.48068 41.9587 1.09138 43.936 0.936097C44.2078 0.915189 43.9891 1.11851 44.1472 1.10855C45.7942 1.02014 45.1783 0.803443 46.0497 0.391772C45.8877 0.842517 46.404 1.04664 47.6473 0.972825C48.3983 0.932884 48.2551 0.753272 48.7359 0.600701C48.8802 0.554511 49.4154 0.66869 49.5099 0.578708C49.8235 0.285054 49.3107 -0.0395109 50.619 0.0816373C50.6196 0.0816906 50.6201 0.081744 50.6206 0.0817975C50.6409 0.0839636 50.6313 0.105068 50.619 0.131914C50.6029 0.167229 50.5823 0.212481 50.619 0.237597C50.6336 0.247554 50.6571 0.254351 50.6935 0.256167C51.9701 0.328941 52.1251 0.0278493 53.5086 0.0603493C54.5994 0.0852755 56.4984 0.45082 57.7087 0.65962C57.6171 1.13425 58.7673 1.19257 59.29 0.947871C60.0742 1.09728 60.9194 1.24635 61.6641 1.46077C61.9194 1.53439 61.7183 1.63311 61.7476 1.65525C62.192 2.00007 62.6002 1.76607 62.7707 1.79507C64.613 2.12865 65.9901 2.80898 67.7413 3.18101C67.803 3.19446 68.016 2.91128 68.3788 3.30965C68.4011 3.33643 67.7974 3.27255 68.5768 3.57944C69.3584 3.88592 70.7391 4.65361 71.8524 5.00642C72.1212 5.08936 72.8858 5.15111 73.3009 5.60138C73.3557 5.6616 73.2379 5.7103 73.3113 5.80778C73.548 6.12052 73.8773 5.90724 74.1091 6.35766C74.3396 6.80853 74.9861 7.40063 76.0806 7.82055C76.115 7.83443 76.4894 7.74285 76.8004 7.93907C77.2962 8.25083 77.9638 8.74638 78.4696 9.08556C78.712 9.24785 78.6511 9.00465 78.6948 9.03045C80.3767 10.0652 81.4145 11.0317 82.982 12.4354C83.2686 12.6914 84.2584 13.2526 84.683 13.8976C85.143 14.6054 83.9827 14.6155 85.4427 15.7742C86.0203 16.2421 87.4564 16.218 87.9623 17.6041C89.8144 19.5019 91.0688 21.6194 92.6576 23.738C92.7289 23.8331 93.1777 23.9965 93.3229 24.2393C93.5377 24.5993 93.5387 24.8659 93.683 25.1262C94.2828 26.2194 94.9311 27.1676 95.4546 28.2541C95.652 28.6671 95.456 28.5858 95.6851 29.0789C95.9111 29.5714 96.2338 29.8231 96.45 30.5357C96.612 31.0759 96.4779 31.7313 96.7057 32.4269C97.0625 32.3155 97.2466 32.7877 97.6472 33.6022C97.724 33.7586 97.7833 33.5397 97.826 33.6115C98.0025 33.9038 98.0027 34.2319 98.1738 34.5095C98.2152 34.5773 98.3374 34.54 98.378 34.5934C98.7308 35.047 98.7209 35.9873 98.7146 36.1451C98.6992 36.7572 98.9319 36.9729 98.9782 37.4251C99.0224 37.8757 98.7589 37.256 98.8499 37.7704C99.0374 38.8319 99.3649 40.1757 99.5598 41.2464C99.6386 41.6739 99.7514 41.3513 99.7665 41.4117C99.9755 42.2926 99.9331 43.2246 100.337 43.6718C99.5484 44.4092 100.503 44.1978 100.466 45.5132C100.462 45.6158 100.062 45.7845 99.962 45.4047C99.8616 45.0246 99.9227 44.424 99.756 43.9043C99.7181 43.7791 99.2292 43.1203 99.1895 43.0271C98.8875 42.2928 99.4752 42.0817 99.5026 42.0341C99.7861 41.5063 99.2029 40.7082 99.1254 40.4868C98.7763 39.4613 98.647 38.5651 98.3222 37.7215C98.1092 37.1719 97.7019 37.229 97.587 36.7896C97.1946 35.3379 97.5557 34.6373 96.6018 33.4625C96.394 33.2122 96.0944 33.6531 96.02 32.5101C96.0166 32.4388 96.006 31.5637 95.6309 31.2096C95.584 31.1654 95.466 31.2185 95.4251 31.1516C95.1525 30.703 95.1041 30.3444 94.8188 29.8524C94.534 29.3621 94.1671 28.7828 93.9088 28.1906C93.7536 27.8334 93.729 27.2797 93.6897 27.0859C93.5838 26.5373 93.0587 26.1823 93.0707 25.7961C93.0798 25.4044 93.6852 25.8077 93.3503 24.9836C93.0452 25.1289 92.7114 25.2435 92.3955 25.3748C91.4261 23.7515 90.4588 22.1518 89.2805 20.6568C89.1341 20.4721 89.1395 20.773 88.9789 20.5789C88.301 19.7627 87.8043 18.966 87.0324 18.1754C86.434 17.5643 85.6549 17.0147 84.9954 16.4207C84.8877 15.762 83.8411 14.9309 83.1464 14.2674C82.9032 14.0339 82.9878 13.9722 82.8293 13.7883C82.2249 13.0996 82.3239 13.6371 82.1014 13.5165C81.1438 13.0109 81.5641 12.3559 80.5509 11.5923C80.497 11.5497 79.5986 11.3865 79.494 11.3434C78.8229 11.0592 79.4841 11.1582 79.1408 10.8723C78.5117 10.354 78.0972 9.94816 77.2308 9.52664C76.9769 9.40339 76.2799 9.26273 75.9208 8.81478C75.8735 8.75583 75.9774 8.66017 75.9324 8.62372C75.1081 7.97616 74.866 8.33545 74.2837 8.17186C73.7011 8.00883 73.0377 7.32819 72.9084 7.16814C72.5749 6.75071 73.2835 7.25541 73.3159 7.24992C73.7099 7.16816 73.0979 6.89334 72.6486 6.64483C72.7707 6.23717 72.1089 5.94056 72.181 6.39008C72.1899 6.43923 72.5652 6.58111 72.6486 6.64483C72.0607 6.80803 71.3471 6.51678 70.7123 5.81221C70.4129 5.48445 70.8537 5.43998 69.6783 5.02333C69.1446 4.83937 69.2366 5.18807 68.7493 5.07659C67.6375 4.82288 66.3531 4.08147 65.2207 3.77618C64.8135 3.66638 65.1592 3.93766 64.8799 3.86866C64.1396 3.68829 63.5215 3.39239 62.7611 3.25992C62.6927 3.24837 62.8155 3.44961 62.5853 3.39333C60.8368 2.97508 59.3137 2.56516 57.4465 2.29703C56.5458 2.1634 54.9168 2.08447 53.9786 2.00851C52.9229 1.9159 51.7326 1.76743 50.619 1.71061C50.0052 1.6786 49.4264 1.67332 48.9293 1.711C48.0194 1.78287 48.2297 1.94251 47.8447 2.07462C47.1061 2.3289 45.7579 2.05987 45.5702 2.02182C45.565 2.01905 46.3401 1.9064 45.9162 1.86149C45.6567 1.70918 45.579 2.02024 45.5702 2.02182C45.447 1.98913 43.881 2.13964 43.58 2.22204C43.4153 2.26332 43.5314 2.40431 43.4455 2.423C41.3932 2.86755 39.3704 3.34059 37.3125 3.84863C37.2758 3.85578 37.2821 3.67232 37.1961 3.69138C35.9945 3.95658 35.3041 4.40854 34.3982 4.86179C33.492 5.31796 32.7379 5.57215 32.0704 5.5224C31.3794 5.84496 30.3221 6.17146 29.7169 6.37159C29.1106 6.57097 29.1811 6.91906 29.1346 6.94869C27.6865 7.91243 26.724 8.21867 25.1734 9.12542C24.4342 9.5541 23.0509 10.5298 22.3274 11.1034C21.7542 11.5531 21.3549 11.7529 20.8543 12.2044C20.7867 12.2655 20.9521 12.3288 20.9338 12.3504C20.4579 12.953 20.5115 12.4418 20.3488 12.4857C19.7606 12.6486 19.4023 12.7695 18.7406 13.484C18.5863 13.6495 18.4521 14.4754 18.1779 14.7673C17.8189 15.148 17.8342 14.8738 17.465 15.2815C17.4336 15.3164 17.5207 15.395 17.2728 15.6236C16.1237 16.686 14.8933 17.879 13.8424 19.1255C13.6988 19.2954 14.0256 19.2001 13.8216 19.4472C12.8647 20.6072 11.8577 21.9081 10.9499 23.0628C10.726 23.347 10.7473 23.0866 10.6706 23.1291C10.2003 23.3947 10.1071 24.1574 10.0525 24.2546C8.73806 26.5968 7.47412 28.2585 6.47057 30.8207C6.41357 30.9616 6.29466 32.1536 5.81694 32.5079C5.7847 32.5313 5.29553 32.885 5.34107 33.3847C5.34432 33.4156 5.61017 33.1794 5.39993 33.6885C5.18928 34.1999 4.99989 35.064 4.59511 35.7297C4.46719 35.9394 3.98648 36.3889 4.03297 37.1502C4.03374 37.2025 4.29703 38.4141 3.81843 38.6947C3.7405 38.7403 3.34189 38.5714 3.35307 39.4561C3.3568 39.6249 3.51515 39.3577 3.47573 39.7897C3.41662 40.4512 3.12854 41.2835 3.173 42.1114C3.1804 42.2568 3.36129 42.8913 3.0754 43.3325C3.0306 43.4015 2.91233 43.2394 2.85939 43.4875C2.60769 44.6693 2.5629 45.9435 2.38006 47.159C2.31639 47.592 2.10327 47.3538 2.01513 47.8078C1.92611 48.2632 1.83232 49.1774 1.92922 49.6603C2.02582 50.1408 2.39457 49.6248 2.41697 50.3377C2.42018 50.4292 2.42335 50.5207 2.4265 50.6122C2.53021 53.6016 2.59978 56.577 3.11964 59.5324C3.20049 59.982 3.25496 59.5868 3.38827 60.2441C3.84819 62.6924 5.22947 66.7339 5.82769 68.8204C6.28892 70.5034 5.2902 68.5541 5.72393 69.8155C5.93854 70.4282 6.61337 70.8844 6.69017 71.0168C7.45043 72.3213 7.76799 73.3322 8.48627 74.4887C8.63527 74.7261 8.64772 74.4031 8.77294 74.6051C9.20186 75.2928 9.58077 76.0602 10.0131 76.7051C10.2076 76.9937 10.2821 76.8685 10.4492 77.1404C10.8519 77.7892 11.1931 78.3758 11.534 79.0519C11.5654 79.1139 11.1622 78.837 11.4931 79.3004C12.0294 80.0484 12.6409 81.0301 13.4199 81.7633C13.6523 81.9802 13.8841 81.7967 14.1706 82.4405C14.2318 82.5743 13.8412 82.6793 14.5983 83.0607C14.725 83.1296 15.921 83.8095 16.1837 84.4532C16.2519 84.6241 16.3528 85.1422 16.6572 85.3746C16.6991 85.4051 16.6641 85.1472 16.8993 85.3544C17.7268 86.0852 18.5713 86.8742 19.4692 87.5658C19.7092 87.7496 19.4719 87.334 19.8258 87.6105C20.7975 88.3699 21.9937 89.3378 22.9538 90.0717C23.3075 90.3428 22.9768 90.2793 22.9946 90.3101C23.286 90.8094 23.7297 90.7102 23.883 90.7897C24.8407 91.2886 25.456 91.8518 26.3329 92.3181C26.5749 92.4464 26.4858 92.2134 26.5398 92.2287C27.0957 92.3913 26.5917 92.4263 26.8872 92.6303C27.7177 93.2022 28.714 93.7104 29.6384 94.1337C29.9771 94.2881 29.679 93.9438 29.9813 94.0831C31.7731 94.9025 33.671 95.6802 35.4664 96.3781C35.8055 96.5098 35.545 96.5712 35.6071 96.6252C36.0386 97.0026 36.8633 96.9325 37.0392 96.9525C37.8433 97.0474 38.1124 97.247 38.8026 97.3991C42.1693 98.1552 46.3901 98.775 49.6559 98.8645C49.9814 98.8758 50.3022 98.8843 50.619 98.8899C54.4205 98.9408 57.549 98.7071 61.2114 97.8758C61.4631 97.8172 61.1684 97.693 61.384 97.64C64.1626 96.9599 66.8766 96.157 69.4962 94.9837C69.7111 94.8873 69.3304 94.859 69.6716 94.6985C70.3713 94.3679 71.257 93.9672 71.9827 93.6679C72.336 93.5217 71.9456 93.8862 72.3006 93.7354C73.127 93.383 73.9809 92.9364 74.7648 92.4499C75.0973 92.2423 74.4966 92.3835 74.9342 92.1257C77.9093 90.3554 80.6216 88.3103 83.3579 86.106C83.5448 85.9547 83.9516 86.0786 84.2756 85.6709C84.2331 85.5707 84.1486 85.486 84.0853 85.396C87.6811 81.8525 90.8406 77.9044 93.2621 73.4361C93.3634 73.2481 93.0189 73.4817 93.2131 73.1179C94.3336 71.0034 95.215 68.8663 96.21 66.6211C96.3072 66.3978 96.5923 66.6295 96.7727 65.9286C96.8067 65.8058 97.0923 64.7555 97.0972 64.4669C97.0971 64.4274 96.8887 64.5704 96.9826 64.2361C97.5305 62.287 98.0286 60.2367 98.4404 58.2515C98.507 57.9304 98.6209 58.3016 98.6695 58.0723C99.0126 56.451 99.0623 54.646 99.2926 53.067C99.4433 52.0149 99.7182 52.4171 100.024 51.8551C100.068 51.7755 100.085 51.1075 100.253 51.0737C100.676 50.9869 101.136 51.3217 101.588 51.1912C101.687 51.1639 101.584 50.2364 101.818 50.7861C101.834 50.8246 101.906 51.4982 101.981 51.6656C102.033 51.7823 102.209 51.5771 102.274 51.8152C102.339 52.0539 102.189 52.3092 102.256 52.7028C102.322 53.0982 102.528 52.9291 102.507 53.7218ZM27.0042 7.35062C26.4062 7.49375 26.624 8.05761 27.1102 7.62521C27.1335 7.60376 27.0348 7.34303 27.0042 7.35062ZM90.8021 21.9187C90.5639 21.1334 89.9315 20.944 90.0931 21.501C90.2501 22.0559 90.8729 22.1565 90.8021 21.9187ZM95.0942 28.7093C94.873 27.8007 94.0544 28.065 94.6394 28.847C94.6729 28.8927 95.1069 28.7622 95.0942 28.7093ZM99.9707 54.5102C99.9798 54.5028 100.022 54.0243 100.015 54.0121C99.8436 53.7451 99.7593 54.6983 99.9707 54.5102ZM98.2361 36.0712C98.2651 35.7662 97.886 35.0224 97.859 35.4039C97.8387 35.7093 98.2023 36.45 98.2361 36.0712ZM5.57052 29.0851C5.55817 29.0896 5.40242 29.3994 5.45124 29.4146C5.60763 29.462 5.77302 29.0089 5.57052 29.0851ZM100.391 49.4994C100.368 47.4984 100.962 46.2 101.011 48.4306C101.015 48.831 100.747 47.5789 100.708 48.0914C100.637 49.0207 101.093 49.6322 100.859 50.5946C100.819 50.7656 100.394 49.6113 100.39 49.4958C100.39 49.497 100.391 49.4982 100.391 49.4994ZM26.3568 6.88713C26.3423 6.88556 25.919 7.11512 25.9132 7.12811C25.7809 7.42063 26.6299 6.95975 26.3568 6.88713ZM0.373074 48.5851C0.352246 48.6102 0.304866 49.7319 0.322782 49.7696C0.617295 50.3565 0.711345 48.103 0.373074 48.5851ZM57.726 0.675125C58.2737 0.558751 58.9132 0.638215 59.2876 0.947218C58.7714 0.844787 58.2452 0.760205 57.726 0.675125Z" fill="white"/>
<path d="M47.9957 100.448C46.43 100.325 44.4272 99.7769 43.0093 99.1641C42.5631 98.9738 42.8303 98.9603 42.5273 98.8208C41.9371 98.5451 41.3683 98.3523 40.8106 98.0285C40.6271 97.9206 40.9373 97.8851 40.7448 97.7756C39.703 97.1788 38.7021 96.6451 37.7117 95.9383C32.8784 92.4523 29.2632 87.8161 26.4596 82.7047C25.5254 81.0028 24.6496 78.85 23.8242 77.0414C23.7281 76.8321 23.645 77.0154 23.6169 76.9796C23.1812 76.4122 23.5442 76.5111 23.4125 76.0778C22.8923 74.3575 22.2626 72.4887 21.7151 70.8548C21.4847 70.1651 21.4098 70.948 21.3618 70.1963C21.3584 70.1442 21.56 70.2787 21.5207 70.0819C21.4306 69.6374 21.1757 68.8061 21.1019 68.468C20.9572 67.8085 20.9289 67.7001 20.7803 67.0748C20.5796 66.2184 20.4361 65.1951 20.2203 64.2744C20.1744 64.0806 20.0671 64.3704 19.9799 64.0631C19.8917 63.756 19.7539 62.9194 19.7439 62.6298C19.733 62.3407 19.878 62.4401 19.898 62.3853C20.0668 61.9304 19.5862 61.0299 19.5604 60.9027C19.0866 58.6424 19.0818 56.6682 18.9448 54.515C18.8428 52.9028 18.7294 51.1734 18.7381 49.6199C18.7382 49.6071 18.7382 49.5942 18.7383 49.5813C18.7526 47.7209 18.8936 46.1557 18.9963 44.3649C19.0078 44.1743 18.8043 44.3849 18.8182 44.1518C18.9672 41.6903 19.2761 39.2392 19.8093 36.8423C19.8634 36.6006 19.9734 36.9423 20.0373 36.703C20.4162 35.2362 21.23 33.0064 20.748 31.9658C21.014 30.9764 21.3634 29.7856 21.7602 28.9495C22.0156 28.4138 22.0263 29.0094 22.1587 28.3013C22.1895 28.1414 21.9762 28.2986 22.0351 28.0592C22.2847 27.048 22.6855 26.011 22.96 25.0169C23.015 24.8161 22.8628 24.8207 22.8591 24.7566C22.8346 24.2192 23.4507 23.5725 23.5414 23.4136C24.2174 22.2131 24.5486 21.2681 25.0891 20.1241C25.2153 19.8593 24.8943 20.0932 25.0114 19.8326C25.6249 18.478 26.3554 17.1293 27.1606 15.9238C27.3414 15.6544 27.33 15.9931 27.4234 15.8691C27.8344 15.3255 27.6516 15.0387 28.0524 14.5262C28.1381 14.4164 28.2133 14.5568 28.2397 14.5437C28.6522 14.3407 28.5548 13.8736 28.6049 13.7846C29.224 12.6726 29.9945 12.2067 30.7014 11.2132C30.7877 11.0928 30.4431 11.2475 30.6951 10.9154C32.3653 8.71481 34.4756 6.62546 36.736 5.07214C37.0863 4.83191 36.925 5.12081 36.9559 5.11761C37.4565 5.05606 37.4819 4.62016 37.5886 4.52794C38.4242 3.81645 39.4467 3.52331 39.8963 2.80732C43.2041 1.06293 46.9056 -0.13229 50.6647 0.0117804C51.5889 0.0449157 52.4987 0.155357 53.3936 0.348123C53.451 0.36014 53.3251 0.512105 53.4389 0.535397C54.8025 0.841493 54.5741 0.55049 55.5673 0.445642C55.8213 0.420986 56.4156 0.982691 56.4644 1.02915C56.6549 1.19362 56.3566 1.36549 56.4242 1.40642C56.9745 1.74048 57.1277 0.916903 57.9507 1.20943C57.9756 1.22 57.8168 1.32355 57.8797 1.36259C58.0744 1.48419 58.3046 1.50777 58.4903 1.63825C58.9134 1.94119 58.9095 2.36902 59.694 2.47817C59.7925 2.49364 59.8663 2.00095 60.5453 2.36705C60.818 2.50554 62.0162 3.16874 62.3163 3.40172C62.6235 3.62863 62.3214 3.61807 62.3413 3.63802C63.0931 4.35435 62.723 4.21882 62.9709 4.74068C63.2105 5.26423 63.5 4.61341 63.7146 4.66984C63.9305 4.72528 64.433 5.3077 64.5349 5.46297C64.6418 5.61916 64.4058 5.55604 64.5117 5.68014C65.2074 6.50765 65.095 5.70237 65.4411 5.84138C66.2636 6.18518 66.3967 7.00652 66.9138 7.57196C67.0509 7.72325 67.0134 7.52235 67.1519 7.64126C67.6972 8.11623 67.8945 8.54967 68.559 9.05177C68.667 9.13211 69.3511 9.42505 69.462 9.91029C69.477 9.97887 69.265 9.92935 69.4449 10.1859C69.7083 10.5615 70.2079 11.2242 70.5469 11.5964C70.7952 11.8678 70.7105 11.4046 70.9358 11.8109C71.035 11.9919 70.7082 11.7648 70.9018 12.0982C71.0938 12.4256 71.675 13.23 71.8814 13.5291C72.093 13.8316 72.1131 13.5739 72.139 13.5923C72.2933 13.7056 72.754 14.2623 72.7878 14.3174C74.5442 17.0066 75.6349 19.7523 76.9125 22.5673C77.0118 22.7881 77.1076 22.5738 77.1244 22.6069C77.5068 23.3503 76.8386 22.9146 76.9145 23.5084C77.2045 23.3016 77.2764 23.6437 77.5224 24.1791C77.6398 24.4341 77.7107 24.244 77.7327 24.263C78.0716 24.5811 77.9252 24.9484 77.9003 25.0368C77.8093 25.3645 78.131 25.5703 78.069 25.7936C78.0074 26.0155 77.6806 25.6696 77.8678 26.1998C78.0366 26.3088 78.2066 25.8071 78.3955 26.1946C79.1218 27.6449 79.7104 30.6322 79.9734 31.8878C80.2536 33.1599 80.3556 33.5482 80.468 34.2983C80.6596 35.6537 80.7944 35.1093 81.0588 35.9216C81.3174 36.7383 80.6609 36.4344 80.5572 36.5762C80.4523 36.7151 80.6034 36.821 80.5592 36.979C80.5148 37.1362 80.3766 36.8355 80.408 37.1821C80.4411 37.5294 80.8068 38.4211 80.9552 38.5263C81.2709 38.7439 81.505 38.2747 81.5297 39.2072C81.5308 39.2608 81.3534 39.1105 81.3652 39.3146C81.462 40.925 81.6235 42.5897 81.6289 44.2015C81.6293 44.4236 81.4431 44.2378 81.4413 44.367C81.415 45.7043 81.675 45.2081 82.0367 45.927C81.5967 45.7831 81.3581 46.1994 81.388 47.2118C81.4038 47.8158 81.5887 47.707 81.7299 48.0978C81.7725 48.2152 81.6495 48.6486 81.7387 48.7258C82.03 48.9817 82.3544 48.5686 82.2288 49.6252C82.2287 49.6257 82.2287 49.6261 82.2286 49.6265C82.2265 49.6429 82.2054 49.6351 82.1785 49.6252C82.1432 49.6122 82.098 49.5955 82.0728 49.6252C82.0629 49.637 82.0561 49.656 82.0543 49.6854C81.9872 50.7179 82.2893 50.8449 82.2967 51.9581C82.3026 52.8396 82.0417 54.3745 81.935 55.3688C81.4536 55.3139 81.4923 56.2513 81.7894 56.6587C81.7185 57.2924 81.6641 57.9987 81.546 58.6091C81.5054 58.8197 81.3823 58.6636 81.3641 58.6887C81.0792 59.0697 81.3666 59.3843 81.3616 59.5235C81.2878 61.0444 80.852 62.2095 80.8249 63.6675C80.8239 63.7188 81.1403 63.8641 80.8254 64.1937C80.8039 64.215 80.7448 63.7203 80.6029 64.381C80.4592 65.0529 80.0181 66.2429 79.9445 67.1995C79.9279 67.4293 80.0541 68.0571 79.7301 68.4482C79.6865 68.5 79.61 68.4108 79.5356 68.4823C79.2976 68.712 79.5852 68.9549 79.2165 69.2043C78.8469 69.4549 78.4543 70.0586 78.3687 71.0126C78.3654 71.0429 78.5572 71.3377 78.4627 71.6204C78.3119 72.0726 78.0487 72.6866 77.8872 73.155C77.8096 73.3803 78.018 73.2916 78.0073 73.3317C77.5631 74.8721 77.0126 75.8823 76.2767 77.4188C76.1409 77.7028 75.9805 78.6181 75.5555 79.0856C75.0857 79.6004 74.6505 78.6384 74.1513 80.0668C73.9518 80.6274 74.4972 81.8366 73.4795 82.5208C72.5182 84.45 71.1907 85.9455 70.0231 87.7445C69.9702 87.8257 70.0071 88.2481 69.8593 88.423C69.6402 88.6818 69.4171 88.7361 69.2561 88.9127C68.5641 89.6652 68.0314 90.4172 67.3236 91.1017C67.0567 91.3578 67.0499 91.1678 66.7308 91.4658C66.4061 91.7657 66.3147 92.1064 65.809 92.4356C65.4284 92.6802 64.8362 92.6879 64.3513 93.019C64.5645 93.3256 64.2534 93.5726 63.7164 94.0904C63.6137 94.1892 63.8128 94.2048 63.7681 94.2571C63.5865 94.4726 63.3187 94.5301 63.1483 94.7359C63.1066 94.7858 63.1763 94.8928 63.1459 94.9396C62.89 95.345 62.1112 95.4962 61.9825 95.514C61.4802 95.5974 61.3751 95.8487 61.0181 95.9627C60.6643 96.0723 61.0933 95.73 60.7019 95.8926C59.8969 96.2268 58.8956 96.7187 58.0726 97.0299C57.7437 97.1553 58.0285 97.2279 57.9829 97.2496C57.3104 97.5546 56.5568 97.5997 56.2568 98.0367C55.5324 97.3233 55.8575 98.2505 54.7806 98.3073C54.6954 98.3102 54.5137 97.9249 54.8045 97.8011C55.0944 97.6772 55.5837 97.6939 55.9742 97.4858C56.0697 97.4383 56.5124 96.8996 56.5766 96.8522C57.0962 96.4904 57.3817 97.039 57.4261 97.061C57.9085 97.2824 58.4322 96.6201 58.5859 96.5202C59.3209 96.0619 60.0091 95.8142 60.5931 95.3856C60.9752 95.1031 60.8097 94.7276 61.1239 94.5558C62.1627 93.9694 62.8445 94.1869 63.4783 93.1044C63.6106 92.8696 63.1475 92.6759 64.043 92.41C64.097 92.3965 64.8122 92.2228 64.9614 91.8222C64.9801 91.7721 64.8939 91.6756 64.9331 91.6269C65.1964 91.3016 65.4709 91.192 65.7697 90.8427C66.0683 90.4927 66.3961 90.0658 66.7891 89.7205C67.0263 89.5127 67.4747 89.3838 67.6195 89.3124C68.0325 89.1135 68.1258 88.5834 68.4547 88.5154C68.787 88.4442 68.6851 89.0518 69.2449 88.5957C69.0038 88.3598 68.7769 88.0931 68.5429 87.8455C69.5217 86.6849 70.5038 85.5269 71.3296 84.238C71.4323 84.0766 71.1743 84.1417 71.2798 83.9664C71.7241 83.2258 72.2198 82.6601 72.6239 81.8526C72.9288 81.2391 73.127 80.4738 73.4112 79.8154C73.9534 79.6078 74.3232 78.5676 74.674 77.8823C74.7988 77.6393 74.8847 77.6983 74.9956 77.5341C75.4098 76.9101 74.9573 77.0882 74.9899 76.882C75.1241 75.9952 75.8588 76.2383 76.2263 75.2707C76.2468 75.2194 76.1066 74.4476 76.1125 74.3575C76.1595 73.761 76.28 74.3194 76.4349 73.9916C76.7149 73.3937 76.9674 72.978 77.1 72.2089C77.1387 71.9829 77.0648 71.3902 77.3853 71.0282C77.4274 70.9804 77.5472 71.0517 77.5688 71.0093C77.948 70.233 77.5409 70.0959 77.5377 69.5943C77.5332 69.0957 78.0132 68.453 78.1336 68.3277C78.4471 68.0024 78.1459 68.6454 78.1598 68.6734C78.3395 68.987 78.4432 68.4438 78.5677 68.0497C78.9876 68.0976 79.1081 67.5228 78.6953 67.6371C78.6502 67.6505 78.6074 67.9739 78.5677 68.0497C78.2634 67.5928 78.3678 66.9698 78.9026 66.3631C79.1516 66.0795 79.2892 66.4352 79.4324 65.4331C79.4954 64.9774 79.1771 65.0907 79.183 64.6795C79.1975 63.7351 79.6755 62.6258 79.7866 61.6699C79.8259 61.3293 79.6176 61.6337 79.6387 61.4003C79.6935 60.7814 79.8901 60.2539 79.9136 59.6212C79.9155 59.5639 79.7339 59.6801 79.7574 59.4861C79.9286 58.0296 80.1664 56.7574 80.2834 55.2213C80.3423 54.4694 80.3234 53.1505 80.3669 52.3737C80.4178 51.5146 80.5425 50.5336 80.5998 49.6251C80.6318 49.1236 80.6439 48.6506 80.6159 48.2438C80.5639 47.4991 80.4012 47.6673 80.2804 47.3531C80.0472 46.7468 80.3852 45.6409 80.4361 45.4909C80.4384 45.4859 80.509 46.1248 80.5766 45.7786C80.7428 45.5705 80.4372 45.4979 80.4361 45.4909C80.4726 45.3936 80.4297 44.1117 80.376 43.8582C80.3483 43.7213 80.1984 43.8105 80.1869 43.7391C79.9163 42.048 79.6893 40.3614 79.5072 38.6305C79.5059 38.5999 79.6855 38.6198 79.6801 38.548C79.6086 37.5479 79.2878 36.9395 79.0149 36.1536C78.7414 35.371 78.6503 34.7199 78.8413 34.1789C78.6752 33.5774 78.6031 32.6785 78.556 32.1545C78.5099 31.6327 78.1612 31.6482 78.1438 31.6061C77.5828 30.2994 77.5492 29.4669 77.1374 28.057C76.9441 27.388 76.4509 26.0994 76.1517 25.4096C75.9181 24.8671 75.8632 24.5039 75.6125 24.0123C75.5786 23.9461 75.4659 24.0718 75.4521 24.053C75.0566 23.5567 75.5085 23.6888 75.5224 23.547C75.5705 23.033 75.5832 22.7248 75.1607 22.0445C75.0634 21.887 74.3622 21.6275 74.1974 21.3485C73.9829 20.9834 74.2248 21.0476 73.9894 20.6629C73.9693 20.6301 73.8669 20.6879 73.7512 20.4385C73.215 19.2881 72.6209 18.0332 71.9346 16.9032C71.8412 16.7488 71.799 17.0427 71.6616 16.8224C71.0209 15.7959 70.297 14.6846 69.6695 13.6741C69.5162 13.4262 69.7291 13.4961 69.7232 13.4221C69.682 12.9663 69.0787 12.7403 69.0157 12.6705C67.5635 11.0797 66.6785 9.63689 64.9658 8.26989C64.8709 8.1918 63.9566 7.87719 63.8394 7.3812C63.8325 7.34827 63.7193 6.84143 63.3041 6.7997C63.2784 6.7976 63.3737 7.07855 63.0413 6.80312C62.701 6.52233 62.0787 6.21004 61.6822 5.7336C61.5575 5.58311 61.3462 5.06252 60.7307 4.99698C60.6893 4.98951 59.6595 5.06962 59.5764 4.58293C59.5622 4.50357 59.8049 4.14515 59.1041 4.04325C58.9701 4.02576 59.1389 4.20984 58.81 4.11922C58.3084 3.98305 57.7296 3.61346 57.0755 3.57548C56.9595 3.56771 56.4402 3.68684 56.1561 3.37162C56.1109 3.32199 56.2584 3.2199 56.0754 3.14718C55.2023 2.80162 54.2306 2.67771 53.3119 2.44638C52.9849 2.36607 53.1862 2.16267 52.8411 2.05879C52.496 1.95349 51.7805 1.83793 51.4041 1.93059C51.0298 2.02262 51.4198 2.39474 50.8744 2.41325C50.8044 2.41617 50.7345 2.41919 50.6645 2.42233C48.3849 2.52417 46.1047 2.75859 43.9163 3.56426C43.584 3.68918 43.9023 3.70049 43.423 3.89898C41.6241 4.5951 38.8735 6.49687 37.4089 7.40695C36.2075 8.12759 37.4335 6.87135 36.5636 7.49254C36.1471 7.79412 36.0234 8.48395 35.944 8.57707C35.167 9.49374 34.4528 9.97266 33.7761 10.8204C33.6366 10.997 33.9104 10.9444 33.7909 11.0933C33.3802 11.6086 32.8977 12.0748 32.5203 12.5799C32.353 12.8053 32.4859 12.8472 32.3238 13.0423C31.9376 13.5123 31.5726 13.9212 31.1258 14.3492C31.0854 14.3879 31.1622 13.9922 30.8978 14.3629C30.4727 14.961 29.8566 15.6859 29.5226 16.4782C29.4228 16.7163 29.6734 16.8748 29.2181 17.2438C29.1245 17.3201 28.8811 17.0197 28.8371 17.7225C28.8267 17.8406 28.6779 18.9722 28.1993 19.3159C28.0733 19.4041 27.6506 19.5838 27.554 19.8802C27.542 19.9207 27.7597 19.8435 27.6603 20.0777C27.3053 20.9085 26.8984 21.7424 26.575 22.6138C26.4893 22.8463 26.7875 22.5741 26.6558 22.9183C26.3008 23.8473 25.7975 25.0096 25.4166 25.9126C25.2747 26.248 25.2308 25.9651 25.2077 25.9848C24.8338 26.3052 25.0606 26.6558 25.0324 26.7959C24.8578 27.6566 24.5054 28.2493 24.3082 29.0397C24.2544 29.2557 24.4499 29.1498 24.4505 29.1962C24.4502 29.6742 24.2781 29.2666 24.1659 29.5371C23.8511 30.2962 23.6211 31.1902 23.4401 31.9956C23.3737 32.2931 23.6326 32.0048 23.5713 32.271C23.2123 33.8514 22.8554 35.4865 22.4888 37.0269C22.4194 37.318 22.3134 37.1094 22.2714 37.1655C21.9776 37.5564 22.1819 38.2209 22.1894 38.3676C22.2227 39.0348 22.0652 39.2698 22.0112 39.8511C21.7455 42.6693 21.4331 46.152 21.3655 48.8293C21.3577 49.0967 21.351 49.3601 21.3453 49.6202C21.2845 52.7401 21.3198 55.3015 21.699 58.355C21.7256 58.5647 21.8855 58.3316 21.9109 58.5115C22.2335 60.8412 22.5429 63.1257 23.1042 65.4162C23.1499 65.6027 23.2618 65.2947 23.3411 65.5919C23.5038 66.1966 23.6849 66.9891 23.7897 67.6177C23.8414 67.9254 23.5901 67.5595 23.6456 67.8689C23.7746 68.588 23.9777 69.3607 24.2193 70.0678C24.3229 70.3689 24.3571 69.8579 24.4784 70.2522C25.3206 72.9554 26.3273 75.5311 27.3331 78.2054C27.4029 78.3897 27.1469 78.7061 27.395 79.0519C27.5002 79.0353 27.6067 78.9808 27.7103 78.945C29.5719 82.5818 31.6919 86.0859 34.4408 89.0696C34.5562 89.1941 34.4965 88.8466 34.7224 89.088C36.031 90.4753 37.4337 91.6599 38.887 92.9353C39.0322 93.0603 38.7536 93.2871 39.2517 93.564C39.3369 93.6145 40.0871 94.0451 40.3133 94.0905C40.3444 94.0961 40.2956 93.8808 40.5304 94.0167C41.9013 94.8108 43.3749 95.5374 44.8354 96.1142C45.0715 96.2073 44.762 96.2861 44.9313 96.3538C46.1406 96.8354 47.5396 96.9924 48.7468 97.267C49.5635 97.4462 49.2328 97.7091 49.6684 98.0258C49.7303 98.0717 50.2614 98.0959 50.287 98.2628C50.3534 98.687 50.0733 99.1439 50.174 99.5969C50.1952 99.6974 50.9711 99.5964 50.5106 99.829C50.4785 99.8462 49.9124 99.9126 49.7691 99.9841C49.6692 100.035 49.8386 100.214 49.6349 100.275C49.4299 100.335 49.2191 100.18 48.8816 100.236C48.5414 100.289 48.6697 100.503 47.9957 100.448ZM78.3076 29.8091C78.3324 29.3013 77.7384 29.4011 78.0183 29.8583C78.0325 29.8803 78.3067 29.8352 78.3076 29.8091ZM70.8423 85.7828C71.4232 85.4174 71.3351 84.8491 70.922 85.0948C70.5118 85.3333 70.6653 85.8936 70.8423 85.7828ZM66.8117 90.8702C67.4784 90.4972 66.9474 89.8257 66.5262 90.4933C66.5014 90.5315 66.773 90.8915 66.8117 90.8702ZM47.5569 97.8854C47.5619 97.8952 47.9395 97.9598 47.9498 97.9524C48.1759 97.794 47.4285 97.6669 47.5569 97.8854ZM61.8979 95.0533C62.1553 95.0314 62.6408 94.5544 62.3222 94.5925C62.0688 94.6241 61.5813 95.0818 61.8979 95.0533ZM66.726 7.7965C66.7279 7.78553 66.5273 7.58332 66.4969 7.62433C66.4002 7.75539 66.7135 7.99221 66.726 7.7965ZM51.5515 98.3946C53.1553 98.3367 54.2754 98.8547 52.4454 98.9901C52.1167 99.0069 53.1302 98.6988 52.7073 98.6773C51.945 98.6363 51.462 99.1024 50.6709 98.8707C50.5342 98.8314 51.4648 98.401 51.5544 98.3935C51.5534 98.3938 51.5525 98.3942 51.5515 98.3946ZM78.9219 29.344C78.9271 29.3323 78.8254 28.9567 78.815 28.9502C78.5739 28.8023 78.7783 29.5566 78.9219 29.344ZM52.3189 0.396374C52.2993 0.37286 51.3846 0.303876 51.3532 0.323396C50.8726 0.607097 52.692 0.741971 52.3189 0.396374ZM81.9209 55.3834C82.0802 55.8254 82.0596 56.3404 81.7898 56.6568C81.8407 56.2363 81.8777 55.8101 81.9209 55.3834Z" fill="white"/>
<path d="M97.619 64.1122C97.619 66.4104 96.3904 68.686 94.0033 70.8092C91.6162 72.9324 88.1174 74.8616 83.7066 76.4866C79.2958 78.1116 74.0594 79.4007 68.2965 80.2801C62.5335 81.1596 56.3568 81.6122 50.119 81.6122C43.8812 81.6122 37.7045 81.1596 31.9416 80.2801C26.1786 79.4007 20.9422 78.1116 16.5314 76.4866C12.1207 74.8616 8.62184 72.9324 6.23474 70.8092C3.84764 68.686 2.61902 66.4104 2.61902 64.1122" stroke="white" stroke-width="4"/>
<path d="M4.61902 36.1122C4.61902 33.8141 5.83471 31.5385 8.19668 29.4153C10.5587 27.2921 14.0206 25.3629 18.385 23.7379C22.7494 22.1128 27.9306 20.8238 33.6329 19.9444C39.3352 19.0649 45.4469 18.6122 51.619 18.6122C57.7911 18.6122 63.9028 19.0649 69.6051 19.9444C75.3074 20.8238 80.4887 22.1129 84.853 23.7379C89.2174 25.3629 92.6794 27.2921 95.0414 29.4153C97.4033 31.5385 98.619 33.8141 98.619 36.1122" stroke="white" stroke-width="4"/>
<path d="M2.57152 49.6224C3.1319 49.5964 3.86645 49.6242 4.42471 49.6625C4.59966 49.6743 4.51107 49.7273 4.63185 49.7379C4.86806 49.7585 5.08812 49.7325 5.32154 49.7571C5.3989 49.7655 5.30261 49.8494 5.38372 49.8563C5.82823 49.8934 6.24875 49.872 6.69903 49.8899C8.91701 49.9779 11.0972 50.0094 13.3423 50.0477C14.0826 50.0602 14.9825 50.1364 15.7471 50.1031C15.8364 50.0992 15.7832 50.0255 15.8002 50.0194C16.0665 49.9264 15.978 50.0752 16.1519 50.0949C16.8421 50.173 17.6097 50.1798 18.274 50.1513C18.5566 50.139 18.2732 49.9926 18.5578 50.0748C18.5776 50.0804 18.5059 50.1586 18.5834 50.167C18.7591 50.1857 19.0926 50.1718 19.2288 50.178C19.4913 50.1903 19.5348 50.1895 19.7831 50.1904C20.1225 50.1923 20.5263 50.2312 20.8905 50.2135C20.9682 50.2095 20.8653 50.1292 20.9893 50.1156C21.1134 50.1019 21.4417 50.1087 21.5524 50.1277C21.6631 50.1466 21.6159 50.2096 21.6355 50.2241C21.7967 50.3461 22.1764 50.1771 22.2253 50.1729C23.1161 50.1018 23.8801 50.198 24.7163 50.1977C25.3511 50.1973 26.0299 50.1655 26.6339 50.1699C27.3536 50.1754 27.9635 50.2189 28.6626 50.2114C28.7364 50.2107 28.6499 50.1164 28.74 50.1153C29.6974 50.1044 30.6482 50.1146 31.6014 50.1783C31.697 50.1848 31.5738 50.2676 31.6693 50.279C32.2541 50.3471 33.1794 50.5106 33.5267 50.15C33.9228 50.1641 34.4037 50.1786 34.7581 50.2513C34.9866 50.2981 34.7647 50.3883 35.0453 50.3498C35.1086 50.3413 35.0263 50.2622 35.1213 50.2553C35.5209 50.2264 35.9576 50.2521 36.353 50.2113C36.4334 50.2028 36.4115 50.132 36.4343 50.1192C36.6258 50.016 36.9446 50.1867 37.0141 50.1991C37.5434 50.2916 37.9298 50.2552 38.4229 50.2574C38.5373 50.258 38.4021 50.1629 38.5121 50.16C39.0831 50.1464 39.6746 50.1546 40.2337 50.1968C40.3581 50.2064 40.2437 50.2874 40.3032 50.2961C40.5652 50.3337 40.6233 50.1807 40.8746 50.2137C40.9276 50.2205 40.8977 50.2898 40.9074 50.2975C41.0587 50.417 41.1901 50.2476 41.229 50.2439C41.7211 50.1928 42.0357 50.3696 42.5111 50.3446C42.568 50.3414 42.4397 50.2537 42.5996 50.2501C43.6647 50.2259 44.7912 50.25 45.8455 50.3202C46.0095 50.331 45.8924 50.3969 45.9028 50.405C46.0709 50.532 46.1797 50.3618 46.2331 50.3554C46.6548 50.3093 47.0487 50.452 47.3352 50.2494C49.121 50.3197 50.8986 50.2059 52.6697 50.3874C52.6922 50.3895 52.6518 50.4733 52.6967 50.4771C53.2377 50.5242 53.1338 50.394 53.4917 50.2347C53.5819 50.1947 53.8562 50.387 53.8805 50.4011C53.9689 50.453 53.8772 50.5777 53.9068 50.5877C54.1518 50.6667 54.1118 50.2545 54.4424 50.2544C54.4527 50.2551 54.4093 50.3309 54.437 50.3385C54.5232 50.3622 54.6087 50.332 54.693 50.3581C54.886 50.4186 54.9547 50.6189 55.2495 50.5023C55.2869 50.4872 55.2299 50.2533 55.525 50.2644C55.6426 50.269 56.1633 50.265 56.3093 50.2801C56.455 50.2953 56.355 50.3706 56.3654 50.3739C56.7581 50.4735 56.6092 50.5148 56.806 50.6623C57.0027 50.8093 56.9481 50.4588 57.0283 50.4197C57.1087 50.3806 57.3966 50.4629 57.4674 50.4914C57.5381 50.52 57.4499 50.5679 57.5128 50.5841C57.9298 50.6898 57.6958 50.4101 57.8332 50.3545C58.1572 50.2227 58.4095 50.4827 58.7061 50.5082C58.7863 50.515 58.7208 50.4558 58.7923 50.4503C59.0753 50.4291 59.2455 50.5103 59.5674 50.4359C59.6201 50.4238 59.8804 50.2675 60.0488 50.3822C60.0727 50.3987 60.0049 50.4635 60.1255 50.478C60.3057 50.4998 60.6303 50.5139 60.824 50.4923C60.967 50.4763 60.8031 50.3695 60.9831 50.4027C61.063 50.4175 60.9148 50.4799 61.0651 50.5025C61.2145 50.5251 61.5967 50.5224 61.7422 50.5202C61.8873 50.518 61.8079 50.4371 61.8196 50.4316C61.8906 50.4004 62.1692 50.3613 62.1938 50.3614C63.4357 50.3515 64.5809 50.488 65.79 50.4428C65.8848 50.4394 65.8216 50.354 65.8361 50.3526C66.1609 50.3169 65.9048 50.5439 66.1318 50.6198C66.099 50.4466 66.2329 50.478 66.4617 50.459C66.572 50.4497 66.512 50.3826 66.522 50.3757C66.6855 50.2738 66.7994 50.4054 66.8287 50.4323C66.937 50.5314 67.0549 50.4144 67.1285 50.4806C67.2022 50.5463 67.0327 50.6437 67.2521 50.6424C67.3137 50.5804 67.1508 50.4183 67.3174 50.3921C67.946 50.2927 69.1195 50.4199 69.6249 50.4331C70.1293 50.4463 70.2923 50.4348 70.5862 50.4572C71.1171 50.4978 70.9226 50.3775 71.2522 50.3225C71.5829 50.2674 71.4222 50.5633 71.4697 50.6269C71.5163 50.6905 71.5673 50.6251 71.6253 50.66C71.6832 50.6949 71.5579 50.7382 71.694 50.7513C71.8301 50.7644 72.2023 50.6513 72.2505 50.5848C72.3525 50.4439 72.1848 50.296 72.545 50.348C72.5658 50.3511 72.4985 50.4289 72.5779 50.4367C73.2079 50.4966 73.8624 50.5003 74.4917 50.5533C74.5782 50.5607 74.5008 50.6473 74.5512 50.6526C75.0757 50.7079 74.8882 50.562 75.1757 50.3999C75.1111 50.6156 75.2701 50.7476 75.6681 50.7489C75.9074 50.7497 75.8662 50.6555 76.021 50.5891C76.0674 50.5691 76.2367 50.6338 76.2674 50.5895C76.3686 50.4446 76.2091 50.2825 76.6195 50.347C76.6375 50.3501 76.5802 50.4294 76.6424 50.4342C77.0446 50.4656 77.0927 50.3141 77.5274 50.2958C77.8682 50.2814 78.4742 50.3737 78.8622 50.3888C78.854 50.6313 79.2205 50.5758 79.3692 50.4085C79.621 50.4154 79.8929 50.4059 80.1363 50.4291C80.2201 50.4369 80.165 50.5072 80.1756 50.5147C80.3376 50.6338 80.447 50.4711 80.5014 50.4647C81.0904 50.4027 81.5704 50.526 82.1325 50.4055C82.1525 50.4012 82.1848 50.2327 82.3351 50.3557C82.3448 50.3642 82.1591 50.4408 82.4236 50.4468C82.6881 50.4527 83.1867 50.543 83.5539 50.4649C83.6428 50.4461 83.8675 50.3094 84.0479 50.4162C84.0719 50.4307 84.0456 50.4791 84.0803 50.506C84.1925 50.5916 84.2537 50.4213 84.3855 50.566C84.5173 50.7107 84.7915 50.819 85.1618 50.7192C85.1736 50.7163 85.2613 50.5813 85.3777 50.5835C85.5636 50.587 85.8275 50.6151 86.0216 50.6142C86.1146 50.6138 86.0551 50.5299 86.0712 50.5284C86.6961 50.4815 87.1409 50.5562 87.8103 50.5886C87.9331 50.5947 88.2857 50.4804 88.5233 50.5708C88.7842 50.6697 88.5161 51.0812 89.1157 50.9831C89.3576 50.9439 89.6638 50.4219 90.0984 50.6924C90.9413 50.6253 91.7209 50.7638 92.5661 50.6681C92.6041 50.6638 92.7244 50.5181 92.8137 50.5201C92.9464 50.5233 93.0192 50.5914 93.1139 50.5959C93.5109 50.6164 93.8741 50.5582 94.2568 50.5672C94.4021 50.5705 94.3513 50.6409 94.5246 50.6449C94.6978 50.6487 94.8133 50.556 95.048 50.6008C95.2252 50.6349 95.4025 50.8244 95.6377 50.8465C95.6467 50.6596 95.8083 50.6635 96.0955 50.6141C96.1507 50.6045 96.0915 50.5395 96.1176 50.5316C96.2239 50.4981 96.3223 50.552 96.4232 50.5155C96.4477 50.5067 96.4489 50.4429 96.469 50.4321C96.6396 50.3381 96.9208 50.4817 96.9691 50.5067C97.1541 50.6016 97.2406 50.5186 97.3826 50.556C97.5243 50.5934 97.3124 50.6401 97.478 50.6628C97.8211 50.7097 98.262 50.6994 98.6105 50.7024C98.7496 50.7031 98.6547 50.6179 98.6746 50.6161C98.9622 50.5945 99.253 50.6851 99.4124 50.5154C99.6118 50.9542 99.5858 50.4728 99.9968 50.5606C100.029 50.5677 100.07 50.7753 99.9461 50.8058C99.8218 50.8362 99.6333 50.7713 99.4608 50.8188C99.42 50.83 99.186 51.0244 99.1541 51.0362C98.9041 51.1283 98.8687 50.8182 98.8554 50.8011C98.7054 50.6173 98.4195 50.8268 98.3443 50.8413C97.9999 50.9076 97.7073 50.864 97.4192 50.9113C97.2308 50.942 97.2124 51.1451 97.0644 51.1389C96.5727 51.1183 96.401 50.8349 95.9376 51.0807C95.8382 51.1331 95.9369 51.3551 95.5809 51.1805C95.5585 51.1695 95.2942 51.0098 95.1414 51.1108C95.1223 51.1236 95.1229 51.1883 95.0976 51.1937C94.928 51.2289 94.815 51.1773 94.6303 51.202C94.4456 51.2267 94.2235 51.2635 94.0127 51.2415C93.8856 51.2284 93.7225 51.1079 93.6617 51.0783C93.49 50.9933 93.3058 51.1327 93.1994 51.0298C93.0921 50.9263 93.3019 50.7691 93.0205 50.7022C93.0101 50.8704 92.9861 51.0429 92.9694 51.212C92.3527 51.2061 91.7459 51.1517 91.1272 51.1592C91.0505 51.1602 91.129 51.2506 91.0467 51.2541C90.6998 51.2685 90.3968 51.204 90.037 51.2297C89.7585 51.2499 89.4531 51.3456 89.1619 51.3697C88.984 51.1773 88.5519 51.2427 88.238 51.2251C88.128 51.219 88.1354 51.1676 88.0572 51.1509C87.7621 51.0889 87.9004 51.2589 87.8195 51.2856C87.4725 51.3998 87.4428 51.015 87.0337 51.0245C87.012 51.0249 86.7471 51.23 86.7106 51.2428C86.4787 51.3261 86.6722 51.1714 86.5271 51.1562C86.2621 51.1285 86.078 51.0795 85.7672 51.1396C85.6765 51.1574 85.4591 51.2853 85.2831 51.1864C85.26 51.1734 85.2727 51.1056 85.2541 51.1017C84.9167 51.0355 84.9079 51.2485 84.7151 51.3207C84.5223 51.3928 84.2245 51.2457 84.1639 51.2033C84.0053 51.0937 84.2854 51.1565 84.294 51.1457C84.3948 51.0177 84.1776 51.0397 84.0117 51.0289C83.9876 50.82 83.7556 50.8326 83.8396 51.0185C83.8492 51.0388 83.9783 51.0194 84.0117 51.0289C83.866 51.2338 83.6109 51.2601 83.3292 51.0686C83.1974 50.9788 83.322 50.8742 82.9214 50.9124C82.7396 50.9297 82.8099 51.0736 82.6494 51.1128C82.2829 51.2022 81.8066 51.0681 81.4287 51.0892C81.2916 51.0969 81.4252 51.1756 81.3315 51.1836C81.0827 51.2049 80.8633 51.1459 80.6135 51.1761C80.5909 51.179 80.6462 51.2614 80.5685 51.2624C79.9796 51.272 79.4668 51.2192 78.8519 51.2177C78.5548 51.2171 78.0236 51.2625 77.7159 51.2534C77.1825 51.238 76.5263 51.1182 76.0706 51.1473C75.7734 51.1659 75.8386 51.2484 75.7113 51.3045C75.4655 51.4134 75.0305 51.2184 74.972 51.1882C74.9702 51.1872 75.2259 51.1678 75.0894 51.1255C75.0101 51.0373 74.9749 51.1878 74.972 51.1882C74.9335 51.1687 74.4226 51.15 74.3212 51.1657C74.266 51.1744 74.2969 51.2525 74.2681 51.2555C73.585 51.3254 72.9007 51.3452 72.2078 51.3087C72.1956 51.3071 72.214 51.2198 72.1853 51.2171C71.7842 51.1783 71.5274 51.2852 71.1965 51.3486C70.8658 51.412 70.6035 51.3908 70.4077 51.2408C70.1581 51.2597 69.8 51.1934 69.594 51.1532C69.3879 51.1129 69.3592 51.283 69.3411 51.2863C68.7756 51.3939 68.4488 51.2966 67.8621 51.2815C67.5832 51.274 67.03 51.2986 66.728 51.3172C66.4893 51.3322 66.3456 51.2924 66.1257 51.3178C66.0959 51.3212 66.1259 51.397 66.1169 51.3999C65.8715 51.4905 65.9894 51.3054 65.9387 51.2723C65.755 51.1521 65.6415 51.0881 65.3272 51.1446C65.2548 51.1576 65.0436 51.4241 64.9114 51.4397C64.7396 51.4594 64.8045 51.3639 64.6246 51.3871C64.6092 51.3889 64.6124 51.4479 64.5014 51.4453C63.986 51.434 63.4241 51.3997 62.8885 51.4056C62.8153 51.4062 62.9091 51.4997 62.8034 51.502C62.3074 51.5131 61.7638 51.5097 61.2806 51.4659C61.1617 51.4548 61.2362 51.3894 61.2104 51.37C61.0519 51.2524 60.8271 51.4232 60.79 51.4265C59.9053 51.5086 59.2282 51.354 58.3265 51.4276C58.2774 51.4319 57.8996 51.6151 57.731 51.458C57.7195 51.4475 57.5527 51.2868 57.4052 51.3967C57.3961 51.4036 57.5 51.4863 57.3186 51.4779C57.1373 51.4695 56.8454 51.5247 56.5961 51.4338C56.5172 51.4052 56.3307 51.2449 56.0953 51.3727C56.0799 51.3816 55.7165 51.6705 55.5868 51.4712C55.5657 51.4383 55.5878 51.2274 55.3068 51.3355C55.2531 51.3565 55.3505 51.4036 55.2091 51.433C54.9924 51.4782 54.7053 51.4217 54.4389 51.5157C54.3925 51.5324 54.1947 51.6755 54.0361 51.5669C54.0112 51.5498 54.0584 51.4794 53.9747 51.4715C53.5763 51.4337 53.1592 51.4808 52.7547 51.4321C52.6115 51.415 52.6847 51.3011 52.5354 51.2706C52.386 51.2401 52.0851 51.2108 51.9288 51.2628C51.7725 51.3148 51.9433 51.4963 51.7091 51.5108C50.6911 51.5739 49.6827 51.4674 48.6661 51.4519C48.5154 51.4495 48.6403 51.5145 48.4182 51.5157C47.599 51.5205 46.1848 51.5814 45.474 51.4435C44.9045 51.3329 45.6212 51.2488 45.186 51.2038C44.976 51.1824 44.7488 51.3934 44.6981 51.4C44.2028 51.4675 43.8587 51.374 43.4129 51.4027C43.3209 51.4086 43.4111 51.4941 43.3328 51.4983C43.0652 51.5131 42.784 51.4749 42.5283 51.4819C42.4136 51.4852 42.4347 51.5505 42.3291 51.5455C42.0766 51.5342 41.8532 51.5067 41.607 51.4455C41.5846 51.4399 41.7359 51.3587 41.549 51.3557C41.2466 51.351 40.8712 51.2906 40.5233 51.353C40.42 51.3718 40.416 51.521 40.194 51.4179C40.1475 51.3964 40.2069 51.2172 39.9484 51.372C39.9049 51.3978 39.4707 51.6067 39.2575 51.472C39.2013 51.4366 39.0578 51.2899 38.9337 51.313C38.9168 51.3166 38.9843 51.3968 38.8814 51.4046C38.5188 51.4308 38.1389 51.4222 37.7664 51.4474C37.6669 51.4542 37.8151 51.5372 37.6668 51.5448C37.2591 51.5657 36.7502 51.5446 36.3515 51.5186C36.2045 51.5089 36.3061 51.4402 36.2954 51.4327C36.1235 51.3111 36.0218 51.4753 35.9647 51.4848C35.6097 51.5422 35.3394 51.465 35.0122 51.4854C34.9219 51.4909 34.9859 51.5692 34.9679 51.5761C34.7815 51.6444 34.9204 51.5038 34.8023 51.4883C34.4718 51.4444 34.1033 51.4507 33.7689 51.4607C33.6461 51.4645 33.7842 51.5552 33.674 51.5576C33.0217 51.5732 32.3436 51.5645 31.7071 51.5145C31.5872 51.5049 31.6626 51.435 31.6377 51.419C31.4655 51.3073 31.2132 51.4597 31.1551 51.4742C30.8911 51.5405 30.7886 51.4787 30.5554 51.4902C29.4165 51.5477 28.0103 51.5067 26.9353 51.4814C25.5344 51.4489 24.4473 51.3824 23.1114 51.3996C23.0265 51.4006 23.1121 51.4936 23.0389 51.4957C22.094 51.5181 21.1637 51.4818 20.2168 51.5086C20.1391 51.5107 20.2511 51.5988 20.1264 51.6051C19.8706 51.6185 19.5466 51.6137 19.2879 51.5855C19.1618 51.572 19.331 51.4963 19.204 51.4842C18.9084 51.4559 18.5914 51.4496 18.2877 51.4637C18.1585 51.4699 18.3535 51.5601 18.1855 51.5611C17.0412 51.5701 15.9174 51.5856 14.761 51.4688C14.6818 51.4608 14.6122 51.2776 14.4436 51.3127C14.431 51.3636 14.4316 51.4234 14.4261 51.4778C12.7603 51.507 11.1115 51.4435 9.44105 51.4337C9.37061 51.4333 9.49233 51.5304 9.35598 51.5301C8.56678 51.5287 7.80041 51.5556 6.99315 51.4591C6.91305 51.4496 6.95415 51.2788 6.71811 51.3047C6.67648 51.3094 6.32098 51.3322 6.22906 51.3692C6.21658 51.3748 6.28144 51.4546 6.16688 51.4569C5.50117 51.469 4.80355 51.4508 4.13899 51.4021C4.03173 51.3941 4.14595 51.3092 4.06956 51.3027C3.52767 51.2576 2.93826 51.3222 2.42046 51.2451C2.07387 51.1932 2.20219 51.0464 2.01801 50.902C1.99196 50.8816 1.77734 50.8783 1.76624 50.7943C1.73775 50.5829 1.8417 50.3515 1.79905 50.1262C1.79003 50.0777 1.5026 50.1299 1.67278 50.0127C1.68467 50.0048 1.89306 49.9659 1.94439 49.9261C1.98012 49.8986 1.91573 49.8131 1.98864 49.7779C2.06154 49.7428 2.14166 49.8144 2.26253 49.773C2.38336 49.7312 2.33023 49.6339 2.57152 49.6224ZM68.6663 50.9734C68.4755 50.8917 68.4473 51.1908 68.6537 51.1192C68.6637 51.1154 68.6761 50.9774 68.6663 50.9734ZM91.7494 50.9261C91.5 50.7942 91.3293 50.9882 91.5053 51.0901C91.6812 51.1918 91.8254 50.9661 91.7494 50.9261ZM94.3358 50.8298C94.0443 50.7258 93.9984 51.1499 94.3106 51.0642C94.3288 51.0593 94.3528 50.8358 94.3358 50.8298ZM2.87212 50.8608C2.86949 50.8568 2.71521 50.853 2.71152 50.8569C2.62937 50.9519 2.93787 50.9596 2.87212 50.8608ZM96.9023 50.7249C96.8113 50.6676 96.5493 50.7338 96.6624 50.8051C96.7534 50.8625 97.0157 50.7963 96.9023 50.7249ZM58.7141 50.6541C58.7111 50.6497 58.6005 50.6457 58.6027 50.6709C58.6102 50.752 58.7641 50.7291 58.7141 50.6541ZM101.264 50.7201C100.62 50.7041 100.229 50.3538 100.931 50.3933C101.058 50.4004 100.657 50.505 100.819 50.5366C101.115 50.5941 101.311 50.3742 101.613 50.492C101.668 50.5136 101.301 50.7218 101.263 50.7206C101.264 50.7204 101.264 50.7202 101.264 50.7201ZM68.5564 50.6141C68.5526 50.6102 68.3995 50.6064 68.3958 50.6103C68.3129 50.7053 68.6213 50.7129 68.5564 50.6141ZM52.26 50.4692C52.2515 50.4608 51.8962 50.4529 51.8846 50.4607C51.6992 50.6159 52.4176 50.6323 52.26 50.4692ZM78.8683 50.3952C79.0354 50.2997 79.2352 50.2885 79.3684 50.4084C79.2024 50.4021 79.0353 50.4011 78.8683 50.3952Z" fill="white"/>
<path d="M49.6292 99.6597C49.6031 99.0994 49.631 98.3648 49.6692 97.8066C49.6811 97.6316 49.7341 97.7202 49.7447 97.5994C49.7653 97.3632 49.7393 97.1431 49.7638 96.9097C49.7722 96.8324 49.8562 96.9287 49.8631 96.8475C49.9002 96.403 49.8788 95.9825 49.8966 95.5322C49.9847 93.3142 50.0162 91.134 50.0545 88.8889C50.067 88.1486 50.1432 87.2488 50.1099 86.4841C50.1059 86.3949 50.0322 86.4481 50.0262 86.4311C49.9332 86.1647 50.082 86.2533 50.1017 86.0794C50.1798 85.3891 50.1866 84.6216 50.1581 83.9573C50.1458 83.6747 49.9994 83.958 50.0816 83.6735C50.0871 83.6537 50.1654 83.7254 50.1737 83.6479C50.1925 83.4721 50.1785 83.1387 50.1847 83.0024C50.1971 82.7399 50.1963 82.6965 50.1972 82.4482C50.1991 82.1087 50.238 81.705 50.2203 81.3408C50.2162 81.263 50.136 81.3659 50.1224 81.242C50.1087 81.1179 50.1155 80.7896 50.1344 80.6789C50.1534 80.5682 50.2164 80.6153 50.2309 80.5958C50.3529 80.4346 50.1839 80.0548 50.1797 80.006C50.1085 79.1152 50.2048 78.3512 50.2045 77.515C50.2041 76.8802 50.1723 76.2014 50.1767 75.5973C50.1822 74.8777 50.2256 74.2678 50.2182 73.5687C50.2175 73.4949 50.1231 73.5814 50.1221 73.4912C50.1111 72.5338 50.1214 71.5831 50.1851 70.6298C50.1916 70.5342 50.2744 70.6574 50.2858 70.5619C50.3539 69.9771 50.5174 69.0519 50.1568 68.7046C50.1709 68.3084 50.1854 67.8275 50.2581 67.4732C50.3049 67.2447 50.3951 67.4666 50.3566 67.1859C50.348 67.1226 50.269 67.2049 50.2621 67.11C50.2332 66.7103 50.2589 66.2736 50.2181 65.8782C50.2096 65.7978 50.1388 65.8198 50.126 65.797C50.0228 65.6055 50.1934 65.2867 50.2058 65.2171C50.2983 64.6879 50.2619 64.3014 50.2642 63.8084C50.2648 63.694 50.1697 63.8292 50.1668 63.7191C50.1532 63.1481 50.1613 62.5566 50.2035 61.9975C50.2131 61.8732 50.2942 61.9875 50.3029 61.9281C50.3404 61.6661 50.1874 61.608 50.2205 61.3567C50.2273 61.3037 50.2966 61.3335 50.3042 61.3239C50.4238 61.1726 50.2544 61.0412 50.2506 61.0023C50.1995 60.5102 50.3764 60.1956 50.3514 59.7202C50.3482 59.6633 50.2604 59.7915 50.2569 59.6317C50.2326 58.5665 50.2568 57.44 50.3269 56.3857C50.3377 56.2218 50.4037 56.3388 50.4118 56.3285C50.5387 56.1604 50.3686 56.0516 50.3622 55.9981C50.3161 55.5765 50.4588 55.1826 50.2561 54.8961C50.3265 53.1103 50.2127 51.3326 50.3942 49.5616C50.3963 49.5391 50.4801 49.5794 50.4839 49.5345C50.531 48.9936 50.4007 49.0975 50.2415 48.7395C50.2015 48.6494 50.3938 48.3751 50.4079 48.3508C50.4598 48.2624 50.5845 48.3541 50.5945 48.3245C50.6735 48.0795 50.2613 48.1194 50.2611 47.7889C50.2618 47.7786 50.3377 47.822 50.3453 47.7942C50.3689 47.7081 50.3388 47.6226 50.3649 47.5383C50.4253 47.3453 50.6256 47.2765 50.5091 46.9817C50.4939 46.9444 50.2601 47.0014 50.2712 46.7063C50.2758 46.5887 50.2717 46.0679 50.2869 45.922C50.302 45.7762 50.3774 45.8763 50.3807 45.8659C50.4803 45.4732 50.5216 45.6221 50.6691 45.4253C50.8161 45.2286 50.4655 45.2831 50.4264 45.2029C50.3874 45.1226 50.4696 44.8346 50.4982 44.7638C50.5268 44.6931 50.5747 44.7813 50.5909 44.7184C50.6966 44.3014 50.4169 44.5354 50.3612 44.398C50.2295 44.0741 50.4895 43.8218 50.5149 43.5252C50.5218 43.445 50.4626 43.5104 50.4571 43.439C50.4359 43.156 50.517 42.9858 50.4427 42.6638C50.4305 42.6112 50.2743 42.3509 50.389 42.1824C50.4055 42.1586 50.4703 42.2264 50.4848 42.1058C50.5066 41.9256 50.5207 41.601 50.4991 41.4073C50.483 41.2643 50.3763 41.4282 50.4095 41.2482C50.4243 41.1682 50.4867 41.3165 50.5093 41.1662C50.5319 41.0167 50.5292 40.6345 50.527 40.4891C50.5248 40.3439 50.4438 40.4234 50.4384 40.4116C50.4071 40.3406 50.3681 40.062 50.3682 40.0374C50.3583 38.7956 50.4948 37.6504 50.4496 36.4413C50.4462 36.3464 50.3608 36.4096 50.3594 36.3951C50.3236 36.0703 50.5506 36.3264 50.6266 36.0995C50.4534 36.1323 50.4847 35.9983 50.4657 35.7695C50.4564 35.6593 50.3893 35.7193 50.3825 35.7093C50.2806 35.5458 50.4122 35.4319 50.4391 35.4026C50.5382 35.2943 50.4211 35.1764 50.4873 35.1027C50.553 35.0291 50.6505 35.1986 50.6492 34.9791C50.5872 34.9176 50.4251 35.0805 50.3988 34.9139C50.2995 34.2853 50.4266 33.1118 50.4399 32.6064C50.4531 32.1019 50.4416 31.939 50.464 31.6451C50.5046 31.1141 50.3843 31.3087 50.3293 30.979C50.2742 30.6484 50.5701 30.8091 50.6337 30.7616C50.6973 30.7149 50.6318 30.664 50.6668 30.6059C50.7017 30.5481 50.745 30.6733 50.7581 30.5373C50.7712 30.4011 50.6581 30.029 50.5916 29.9807C50.4507 29.8787 50.3028 30.0464 50.3548 29.6862C50.3579 29.6655 50.4357 29.7327 50.4435 29.6534C50.5034 29.0234 50.5071 28.3688 50.5601 27.7396C50.5675 27.6531 50.654 27.7304 50.6593 27.6801C50.7147 27.1556 50.5688 27.3431 50.4067 27.0556C50.6224 27.1201 50.7544 26.9612 50.7556 26.5631C50.7565 26.3238 50.6623 26.365 50.5959 26.2103C50.5758 26.1638 50.6405 25.9945 50.5962 25.9638C50.4514 25.8627 50.2892 26.0221 50.3538 25.6117C50.3569 25.5937 50.4362 25.6511 50.441 25.5888C50.4724 25.1867 50.3209 25.1386 50.3025 24.7038C50.2881 24.3631 50.3805 23.7571 50.3955 23.3691C50.6381 23.3772 50.5826 23.0108 50.4153 22.8621C50.4222 22.6103 50.4127 22.3383 50.4358 22.095C50.4437 22.0112 50.5139 22.0662 50.5215 22.0557C50.6405 21.8937 50.4778 21.7842 50.4715 21.7299C50.4095 21.1408 50.5328 20.6609 50.4123 20.0987C50.4079 20.0788 50.2394 20.0464 50.3625 19.8962C50.3709 19.8864 50.4476 20.0721 50.4535 19.8077C50.4595 19.5432 50.5498 19.0446 50.4717 18.6774C50.4529 18.5885 50.3161 18.3637 50.423 18.1834C50.4375 18.1593 50.4858 18.1856 50.5127 18.1509C50.5984 18.0388 50.4281 17.9776 50.5728 17.8458C50.7175 17.714 50.8258 17.4398 50.726 17.0695C50.7231 17.0577 50.5881 16.97 50.5902 16.8536C50.5938 16.6676 50.6219 16.4037 50.621 16.2096C50.6205 16.1167 50.5367 16.1762 50.5352 16.16C50.4882 15.5351 50.5629 15.0904 50.5954 14.4209C50.6015 14.2982 50.4872 13.9455 50.5775 13.7079C50.6765 13.4471 51.0879 13.7151 50.9899 13.1155C50.9507 12.8737 50.4287 12.5675 50.6991 12.1329C50.6321 11.2899 50.7705 10.5104 50.6748 9.66512C50.6706 9.62711 50.5249 9.5069 50.5269 9.41755C50.5301 9.28487 50.5982 9.21207 50.6027 9.11733C50.6232 8.72041 50.5649 8.35715 50.574 7.97445C50.5773 7.82914 50.6477 7.87997 50.6516 7.70665C50.6555 7.53348 50.5628 7.41798 50.6076 7.18327C50.6417 7.00602 50.8312 6.8288 50.8533 6.59352C50.6664 6.58455 50.6702 6.42296 50.6209 6.13576C50.6113 6.08056 50.5462 6.13975 50.5384 6.11363C50.5048 6.00735 50.5588 5.90899 50.5223 5.80807C50.5135 5.78353 50.4496 5.78236 50.4389 5.7623C50.3449 5.59164 50.4885 5.31049 50.5135 5.26219C50.6084 5.07712 50.5254 4.99063 50.5628 4.84868C50.6002 4.70695 50.6469 4.91885 50.6696 4.75331C50.7165 4.41016 50.7062 3.96923 50.7091 3.62072C50.7099 3.48166 50.6247 3.57654 50.6228 3.55663C50.6012 3.2691 50.6919 2.97831 50.5221 2.81887C50.961 2.6195 50.4796 2.64548 50.5674 2.23446C50.5745 2.20209 50.7821 2.16089 50.8125 2.28519C50.843 2.40949 50.7781 2.59798 50.8256 2.77042C50.8367 2.81126 51.0312 3.04522 51.043 3.07713C51.1351 3.32715 50.8249 3.36259 50.8079 3.37582C50.6241 3.52582 50.8336 3.81171 50.8481 3.88699C50.9144 4.23138 50.8708 4.524 50.9181 4.81206C50.9487 5.00046 51.1519 5.01888 51.1457 5.16682C51.1251 5.6586 50.8417 5.83026 51.0874 6.29369C51.1398 6.39305 51.3619 6.29432 51.1873 6.65036C51.1763 6.67273 51.0166 6.93709 51.1176 7.08981C51.1303 7.10899 51.195 7.1084 51.2005 7.13368C51.2356 7.30322 51.1841 7.4163 51.2088 7.60098C51.2335 7.78567 51.2703 8.00772 51.2483 8.21859C51.2352 8.34564 51.1146 8.50872 51.0851 8.56954C51.0001 8.74131 51.1395 8.92548 51.0365 9.03188C50.933 9.13918 50.7759 8.9294 50.709 9.21079C50.8771 9.22121 51.0497 9.24516 51.2188 9.26191C51.2129 9.87856 51.1585 10.4853 51.1659 11.104C51.167 11.1807 51.2574 11.1023 51.2609 11.1845C51.2753 11.5315 51.2108 11.8345 51.2365 12.1943C51.2567 12.4728 51.3524 12.7782 51.3765 13.0694C51.1841 13.2473 51.2494 13.6794 51.2318 13.9933C51.2258 14.1032 51.1744 14.0959 51.1576 14.1741C51.0956 14.4691 51.2656 14.3309 51.2924 14.4118C51.4066 14.7588 51.0218 14.7885 51.0313 15.1976C51.0317 15.2193 51.2368 15.4842 51.2495 15.5207C51.3328 15.7526 51.1782 15.5591 51.163 15.7042C51.1353 15.9691 51.0863 16.1532 51.1464 16.4641C51.1642 16.5547 51.292 16.7721 51.1931 16.9482C51.1802 16.9713 51.1124 16.9585 51.1084 16.9771C51.0422 17.3145 51.2553 17.3234 51.3274 17.5162C51.3996 17.709 51.2525 18.0068 51.2101 18.0674C51.1005 18.2259 51.1633 17.9459 51.1525 17.9373C51.0245 17.8364 51.0465 18.0536 51.0357 18.2196C50.8268 18.2436 50.8393 18.4757 51.0253 18.3916C51.0456 18.3821 51.0261 18.2529 51.0357 18.2196C51.2406 18.3653 51.2669 18.6203 51.0754 18.902C50.9856 19.0339 50.8809 18.9093 50.9192 19.3098C50.9365 19.4916 51.0803 19.4214 51.1195 19.5818C51.209 19.9484 51.0748 20.4246 51.096 20.8025C51.1037 20.9397 51.1824 20.8061 51.1903 20.8998C51.2117 21.1486 51.1526 21.3679 51.1829 21.6177C51.1857 21.6404 51.2681 21.5851 51.2692 21.6628C51.2788 22.2517 51.226 22.7645 51.2245 23.3794C51.2239 23.6765 51.2693 24.2076 51.2602 24.5154C51.2448 25.0488 51.125 25.705 51.1541 26.1607C51.1727 26.4579 51.2551 26.3927 51.3113 26.52C51.4202 26.7658 51.2252 27.2007 51.195 27.2593C51.194 27.2611 51.1745 27.0054 51.1322 27.1418C51.0441 27.2212 51.1946 27.2564 51.195 27.2593C51.1755 27.2978 51.1568 27.8086 51.1725 27.9101C51.1811 27.9652 51.2592 27.9344 51.2622 27.9631C51.3321 28.6462 51.352 29.3306 51.3155 30.0234C51.3139 30.0356 51.2265 30.0173 51.2239 30.0459C51.1851 30.4471 51.2919 30.7039 51.3554 31.0347C51.4188 31.3655 51.3976 31.6278 51.2476 31.8236C51.2665 32.0732 51.2002 32.4312 51.1599 32.6373C51.1197 32.8433 51.2898 32.8721 51.2931 32.8902C51.4007 33.4557 51.3034 33.7825 51.2882 34.3692C51.2807 34.648 51.3054 35.2013 51.324 35.5033C51.339 35.7419 51.2991 35.8857 51.3246 36.1056C51.328 36.1353 51.4037 36.1053 51.4066 36.1144C51.4972 36.3598 51.3121 36.2419 51.2791 36.2925C51.1589 36.4762 51.0948 36.5897 51.1514 36.904C51.1644 36.9765 51.4309 37.1877 51.4464 37.3198C51.4662 37.4916 51.3707 37.4268 51.3938 37.6067C51.3957 37.6221 51.4547 37.6189 51.4521 37.7299C51.4408 38.2453 51.4065 38.8072 51.4124 39.3428C51.413 39.4159 51.5064 39.3221 51.5088 39.4278C51.5199 39.9238 51.5164 40.4675 51.4727 40.9507C51.4616 41.0696 51.3962 40.995 51.3767 41.0209C51.2592 41.1794 51.43 41.4042 51.4333 41.4412C51.5154 42.3259 51.3607 43.003 51.4344 43.9048C51.4387 43.9538 51.6218 44.3317 51.4648 44.5002C51.4543 44.5118 51.2936 44.6786 51.4035 44.826C51.4103 44.8352 51.4931 44.7313 51.4847 44.9126C51.4762 45.094 51.5315 45.3858 51.4406 45.6351C51.4119 45.7141 51.2516 45.9006 51.3794 46.136C51.3883 46.1513 51.6773 46.5148 51.4779 46.6445C51.4451 46.6655 51.2342 46.6435 51.3423 46.9245C51.3633 46.9782 51.4103 46.8807 51.4397 47.0221C51.485 47.2388 51.4285 47.526 51.5225 47.7923C51.5391 47.8388 51.6823 48.0365 51.5736 48.1952C51.5566 48.22 51.4862 48.1728 51.4783 48.2566C51.4405 48.6549 51.4876 49.0721 51.4389 49.4765C51.4218 49.6198 51.3079 49.5465 51.2774 49.6959C51.2469 49.8452 51.2175 50.1461 51.2696 50.3024C51.3216 50.4587 51.5031 50.288 51.5176 50.5221C51.5807 51.5402 51.4742 52.5486 51.4587 53.5651C51.4563 53.7159 51.5213 53.5909 51.5225 53.8131C51.5273 54.6322 51.5882 56.0465 51.4502 56.7573C51.3397 57.3268 51.2556 56.6101 51.2106 57.0453C51.1892 57.2553 51.4001 57.4825 51.4068 57.5332C51.4742 58.0284 51.3808 58.3726 51.4095 58.8184C51.4154 58.9104 51.5009 58.8201 51.505 58.8985C51.5199 59.1661 51.4817 59.4473 51.4887 59.703C51.492 59.8177 51.5573 59.7966 51.5523 59.9021C51.541 60.1547 51.5135 60.378 51.4523 60.6242C51.4467 60.6467 51.3655 60.4954 51.3625 60.6822C51.3578 60.9847 51.2974 61.3601 51.3598 61.708C51.3785 61.8112 51.5278 61.8153 51.4247 62.0372C51.4032 62.0838 51.2239 62.0244 51.3788 62.2829C51.4046 62.3264 51.6134 62.7606 51.4788 62.9737C51.4434 63.0299 51.2967 63.1734 51.3197 63.2976C51.3234 63.3144 51.4036 63.247 51.4114 63.3498C51.4376 63.7124 51.429 64.0924 51.4541 64.4649C51.461 64.5644 51.544 64.4162 51.5515 64.5645C51.5725 64.9721 51.5514 65.4811 51.5254 65.8798C51.5157 66.0267 51.447 65.9251 51.4395 65.9358C51.3178 66.1078 51.482 66.2095 51.4916 66.2666C51.5489 66.6216 51.4718 66.8919 51.4922 67.2191C51.4976 67.3094 51.5759 67.2454 51.5829 67.2634C51.6511 67.4498 51.5105 67.3109 51.495 67.4289C51.4511 67.7595 51.4574 68.128 51.4674 68.4623C51.4712 68.5851 51.562 68.4471 51.5644 68.5573C51.58 69.2096 51.5713 69.8876 51.5213 70.5242C51.5117 70.644 51.4418 70.5686 51.4258 70.5936C51.3141 70.7658 51.4665 71.0181 51.481 71.0762C51.5473 71.3401 51.4854 71.4427 51.497 71.6758C51.5544 72.8147 51.5135 74.2209 51.4882 75.296C51.4556 76.6969 51.3891 77.7839 51.4064 79.1198C51.4074 79.2048 51.5004 79.1191 51.5025 79.1923C51.5249 80.1373 51.4886 81.0676 51.5154 82.0144C51.5175 82.0921 51.6056 81.9801 51.6118 82.1048C51.6253 82.3607 51.6205 82.6847 51.5923 82.9433C51.5788 83.0695 51.5031 82.9003 51.491 83.0272C51.4626 83.3229 51.4564 83.6398 51.4705 83.9435C51.4767 84.0728 51.5669 83.8778 51.5679 84.0458C51.5768 85.1901 51.5924 86.3139 51.4756 87.4702C51.4676 87.5495 51.2843 87.6191 51.3195 87.7876C51.3703 87.8003 51.4302 87.7996 51.4845 87.8052C51.5138 89.471 51.4503 91.1197 51.4405 92.7902C51.4401 92.8606 51.5372 92.7389 51.5369 92.8753C51.5355 93.6645 51.5624 94.4309 51.4659 95.2381C51.4564 95.3182 51.2856 95.2771 51.3114 95.5132C51.3161 95.5548 51.3389 95.9103 51.376 96.0022C51.3816 96.0147 51.4613 95.9498 51.4637 96.0644C51.4758 96.7301 51.4576 97.4277 51.4088 98.0923C51.4008 98.1995 51.3159 98.0853 51.3095 98.1617C51.2644 98.7036 51.329 99.293 51.2519 99.8108C51.2 100.157 51.0532 100.029 50.9087 100.213C50.8883 100.239 50.8851 100.454 50.8011 100.465C50.5897 100.494 50.3583 100.39 50.133 100.432C50.0844 100.441 50.1367 100.729 50.0194 100.558C50.0116 100.547 49.9727 100.338 49.9329 100.287C49.9054 100.251 49.8199 100.316 49.7847 100.243C49.7495 100.17 49.8212 100.09 49.7798 99.9687C49.7379 99.8479 49.6407 99.901 49.6292 99.6597ZM50.9801 33.565C50.8985 33.7558 51.1976 33.7839 51.126 33.5776C51.1222 33.5676 50.9841 33.5552 50.9801 33.565ZM50.9329 10.4818C50.801 10.7313 50.995 10.902 51.0968 10.726C51.1986 10.55 50.9729 10.4059 50.9329 10.4818ZM50.8366 7.89548C50.7326 8.18699 51.1567 8.23286 51.071 7.92066C51.0661 7.90251 50.8426 7.87843 50.8366 7.89548ZM50.8676 99.3591C50.8636 99.3618 50.8597 99.5161 50.8637 99.5197C50.9587 99.6019 50.9663 99.2934 50.8676 99.3591ZM50.7317 5.32895C50.6744 5.41994 50.7406 5.68195 50.8119 5.56889C50.8693 5.47788 50.8031 5.2156 50.7317 5.32895ZM50.6609 43.5172C50.6565 43.5202 50.6525 43.6308 50.6776 43.6286C50.7588 43.6211 50.7359 43.4671 50.6609 43.5172ZM50.7268 0.966835C50.7109 1.61131 50.3605 2.00206 50.4001 1.30024C50.4072 1.17314 50.5118 1.57415 50.5434 1.41239C50.6009 1.11639 50.3809 0.919846 50.4988 0.61779C50.5204 0.563095 50.7285 0.930069 50.7273 0.967979C50.7272 0.96759 50.727 0.967209 50.7268 0.966835ZM50.6209 33.6749C50.6169 33.6787 50.6132 33.8318 50.6171 33.8355C50.7121 33.9184 50.7197 33.6099 50.6209 33.6749ZM50.476 49.9713C50.4676 49.9798 50.4597 50.3351 50.4674 50.3467C50.6227 50.532 50.6391 49.8136 50.476 49.9713ZM50.402 23.363C50.3065 23.1959 50.2952 22.9961 50.4152 22.8629C50.4088 23.0289 50.4079 23.196 50.402 23.363Z" fill="white"/>
</svg>
